<svg width="246" height="44" viewBox="0 0 246 44" fill="none" xmlns="http://www.w3.org/2000/svg">
<path d="M63.52 16.872L63.424 18.12L61.568 18.024H60.704L60.624 23.768L60.704 27H59.04L59.136 23.912L59.056 18.024H58.192L56.304 18.12L56.192 17.976L56.32 16.728H63.424L63.52 16.872ZM66.6562 19.48C67.6909 19.48 68.4856 19.8053 69.0403 20.456C69.6056 21.096 69.8883 22.008 69.8883 23.192C69.8883 24.4613 69.5896 25.4373 68.9923 26.12C68.3949 26.8027 67.5469 27.144 66.4483 27.144C65.4136 27.144 64.6136 26.824 64.0483 26.184C63.4936 25.5333 63.2163 24.616 63.2163 23.432C63.2163 22.1627 63.5149 21.1867 64.1123 20.504C64.7096 19.8213 65.5576 19.48 66.6562 19.48ZM66.5603 20.616C65.3443 20.616 64.7363 21.4373 64.7363 23.08C64.7363 24.0827 64.8856 24.824 65.1843 25.304C65.4829 25.784 65.9416 26.024 66.5603 26.024C67.1683 26.024 67.6216 25.8213 67.9203 25.416C68.2189 25.0107 68.3683 24.392 68.3683 23.56C68.3683 22.5573 68.2189 21.816 67.9203 21.336C67.6216 20.856 67.1683 20.616 66.5603 20.616ZM76.6813 23.768L76.7453 27H75.1453L75.1933 23.912L75.1773 20.712H73.4973L73.4333 21.24C73.2733 22.7333 73.0919 23.8853 72.8893 24.696C72.6973 25.5067 72.4519 26.0987 72.1533 26.472C71.8653 26.8347 71.4813 27.0587 71.0013 27.144L70.6173 27.16L70.3613 25.912C70.7559 25.784 71.0653 25.5653 71.2893 25.256C71.5133 24.936 71.6946 24.4507 71.8333 23.8C71.9719 23.1493 72.0999 22.2053 72.2173 20.968L72.3613 19.656L72.3453 19.624H76.7613L76.6813 23.768ZM89.4125 25.8V28.76L88.3245 28.856L88.1325 27H79.0285L79.0765 23.912L79.0285 19.624H80.5165L80.4365 23.768L80.4845 25.816H82.8685L82.9005 23.912L82.8525 19.624H84.3405L84.2765 23.768L84.3085 25.816H86.6925L86.7245 23.912L86.6765 19.624H88.1485L88.1005 23.768L88.1165 25.8H89.4125ZM90.9515 23.912L90.8875 19.656L92.4715 19.592L92.4395 24.744H92.5355L95.4955 19.624H97.0955L97.0315 23.72L97.0955 27H95.5115L95.5595 24.024L95.5755 21.784H95.4635L92.4555 27H90.8875L90.9515 23.912ZM105.58 23.768L105.628 27H104.028L104.092 23.912L102.46 23.896L100.924 23.928L100.972 27H99.3719L99.4359 23.912L99.3879 19.624H100.988L100.94 22.696L102.524 22.712H104.076L104.06 19.624H105.644L105.58 23.768ZM110.604 19.48C111.34 19.48 111.921 19.656 112.348 20.008C112.774 20.36 112.988 20.8507 112.988 21.48C112.988 21.672 112.956 22.312 112.892 23.4C112.828 24.4667 112.796 25.0907 112.796 25.272C112.796 25.4747 112.828 25.6187 112.892 25.704C112.966 25.7787 113.089 25.816 113.26 25.816C113.366 25.816 113.526 25.7947 113.74 25.752L113.884 25.864L113.724 26.76C113.414 26.952 113.078 27.0693 112.716 27.112C112.385 27.08 112.118 26.9627 111.916 26.76C111.713 26.5467 111.59 26.2693 111.548 25.928H111.436C110.892 26.504 110.337 26.904 109.772 27.128C109.036 27.1173 108.454 26.9253 108.028 26.552C107.612 26.1787 107.404 25.672 107.404 25.032C107.404 24.0827 107.921 23.4907 108.956 23.256L111.484 22.696L111.5 21.832C111.5 21.4373 111.398 21.1387 111.196 20.936C111.004 20.7333 110.721 20.632 110.348 20.632C109.985 20.632 109.622 20.7173 109.26 20.888C108.897 21.048 108.497 21.304 108.06 21.656L107.932 21.576L107.724 20.44C108.662 19.8 109.622 19.48 110.604 19.48ZM109.404 24.136C109.212 24.1787 109.073 24.2533 108.988 24.36C108.902 24.456 108.86 24.6107 108.86 24.824C108.86 25.144 108.945 25.3947 109.116 25.576C109.297 25.7573 109.537 25.848 109.836 25.848C110.337 25.848 110.87 25.5227 111.436 24.872L111.484 23.64L109.404 24.136Z" fill="black"/>
<path d="M211.514 17.528C212.292 17.528 212.9 17.7307 213.338 18.136C213.786 18.5307 214.01 19.0747 214.01 19.768C214.01 20.312 213.871 20.76 213.594 21.112C213.316 21.464 212.938 21.7787 212.458 22.056V22.136C213.034 22.4133 213.482 22.7227 213.802 23.064C214.132 23.3947 214.298 23.864 214.298 24.472C214.298 25.272 214.015 25.912 213.45 26.392C212.884 26.872 212.132 27.112 211.194 27.112C210.319 27.112 209.626 26.8933 209.114 26.456C208.612 26.008 208.362 25.4267 208.362 24.712C208.362 24.1147 208.532 23.6293 208.874 23.256C209.215 22.872 209.668 22.5413 210.234 22.264V22.184C209.786 21.9493 209.423 21.6613 209.146 21.32C208.868 20.9787 208.73 20.5307 208.73 19.976C208.73 19.2187 208.986 18.6213 209.498 18.184C210.01 17.7467 210.682 17.528 211.514 17.528ZM211.45 18.456C210.948 18.456 210.548 18.5893 210.25 18.856C209.951 19.1227 209.802 19.4853 209.802 19.944C209.802 20.4027 209.94 20.76 210.218 21.016C210.506 21.2613 210.916 21.4907 211.45 21.704C211.93 21.5013 212.303 21.2667 212.57 21C212.847 20.7227 212.986 20.3493 212.986 19.88C212.986 19.432 212.847 19.0853 212.57 18.84C212.303 18.584 211.93 18.456 211.45 18.456ZM211.226 22.664C210.682 22.856 210.25 23.096 209.93 23.384C209.61 23.672 209.45 24.072 209.45 24.584C209.45 25.064 209.615 25.4533 209.946 25.752C210.287 26.0507 210.74 26.2 211.306 26.2C211.892 26.2 212.356 26.0507 212.698 25.752C213.05 25.4427 213.226 25.0427 213.226 24.552C213.226 24.2107 213.135 23.928 212.954 23.704C212.772 23.4693 212.554 23.288 212.298 23.16C212.052 23.0213 211.695 22.856 211.226 22.664ZM221.669 19.544C221.999 19.544 222.341 19.5867 222.693 19.672C223.055 19.7467 223.37 19.848 223.637 19.976L223.413 21.08L223.269 21.128C222.714 20.7653 222.165 20.584 221.621 20.584C220.991 20.584 220.501 20.824 220.149 21.304C219.797 21.784 219.621 22.456 219.621 23.32C219.621 24.184 219.802 24.8667 220.164 25.368C220.538 25.8587 221.05 26.104 221.701 26.104C221.989 26.104 222.287 26.056 222.597 25.96C222.917 25.864 223.215 25.7307 223.493 25.56L223.637 25.64L223.493 26.712C222.842 26.9893 222.191 27.128 221.541 27.128C220.57 27.128 219.807 26.7973 219.253 26.136C218.698 25.464 218.421 24.5467 218.421 23.384C218.421 22.2 218.709 21.2667 219.285 20.584C219.871 19.8907 220.666 19.544 221.669 19.544ZM225.885 19.672H227.133L227.533 20.792L228.989 24.728H229.085L230.669 20.744L231.053 19.672H232.301L233.005 27H231.981L231.821 24.696L231.501 21.384H231.405L229.437 26.168H228.525L226.701 21.384H226.621L226.269 24.488L226.061 27H225.085L225.885 19.672Z" fill="black"/>
<path d="M38.5938 15.4844H17.4531C16.6765 15.4844 16.0469 16.114 16.0469 16.8906C16.0469 17.6673 16.6765 18.2969 17.4531 18.2969H38.5938C39.3704 18.2969 40 17.6673 40 16.8906C40 16.114 39.3704 15.4844 38.5938 15.4844Z" fill="black"/>
<path d="M39.0625 10H16.9375C16.4197 10 16 10.4197 16 10.9375C16 11.4553 16.4197 11.875 16.9375 11.875H39.0625C39.5803 11.875 40 11.4553 40 10.9375C40 10.4197 39.5803 10 39.0625 10Z" fill="black"/>
<path d="M37.6562 29.3125H18.3906C17.0962 29.3125 16.0469 30.3618 16.0469 31.6562C16.0469 32.9507 17.0962 34 18.3906 34H37.6562C38.9507 34 40 32.9507 40 31.6562C40 30.3618 38.9507 29.3125 37.6562 29.3125Z" fill="black"/>
<path d="M38.125 21.9062H17.9219C16.8864 21.9062 16.0469 22.7457 16.0469 23.7812C16.0469 24.8168 16.8864 25.6562 17.9219 25.6562H38.125C39.1605 25.6562 40 24.8168 40 23.7812C40 22.7457 39.1605 21.9062 38.125 21.9062Z" fill="black"/>
</svg>
