<svg width="246" height="44" viewBox="0 0 246 44" fill="none" xmlns="http://www.w3.org/2000/svg">
<path d="M38.5938 15.4844H17.4531C16.6765 15.4844 16.0469 16.114 16.0469 16.8906C16.0469 17.6673 16.6765 18.2969 17.4531 18.2969H38.5938C39.3704 18.2969 40 17.6673 40 16.8906C40 16.114 39.3704 15.4844 38.5938 15.4844Z" fill="black"/>
<path d="M39.0625 10H16.9375C16.4197 10 16 10.4197 16 10.9375C16 11.4553 16.4197 11.875 16.9375 11.875H39.0625C39.5803 11.875 40 11.4553 40 10.9375C40 10.4197 39.5803 10 39.0625 10Z" fill="black"/>
<path d="M37.6562 29.3125H18.3906C17.0962 29.3125 16.0469 30.3618 16.0469 31.6562C16.0469 32.9507 17.0962 34 18.3906 34H37.6562C38.9507 34 40 32.9507 40 31.6562C40 30.3618 38.9507 29.3125 37.6562 29.3125Z" fill="black"/>
<path d="M38.125 21.9062H17.9219C16.8864 21.9062 16.0469 22.7457 16.0469 23.7812C16.0469 24.8168 16.8864 25.6562 17.9219 25.6562H38.125C39.1605 25.6562 40 24.8168 40 23.7812C40 22.7457 39.1605 21.9062 38.125 21.9062Z" fill="black"/>
</svg>
